<?xml version="1.0" encoding="UTF-8" standalone="no"?>
<svg
   id="图层_1"
   data-name="图层 1"
   viewBox="0 0 1178.429 865.393"
   version="1.1"
   sodipodi:docname="rockbase-iot-1.svg"
   inkscape:version="1.4 (86a8ad7, 2024-10-11)"
   xmlns:inkscape="http://www.inkscape.org/namespaces/inkscape"
   xmlns:sodipodi="http://sodipodi.sourceforge.net/DTD/sodipodi-0.dtd"
   xmlns="http://www.w3.org/2000/svg"
   xmlns:svg="http://www.w3.org/2000/svg"
   xmlns:rdf="http://www.w3.org/1999/02/22-rdf-syntax-ns#"
   xmlns:cc="http://creativecommons.org/ns#"
   xmlns:dc="http://purl.org/dc/elements/1.1/">
  <sodipodi:namedview
     id="namedview22"
     pagecolor="#ffffff"
     bordercolor="#000000"
     borderopacity="0.25"
     inkscape:showpageshadow="2"
     inkscape:pageopacity="0.0"
     inkscape:pagecheckerboard="0"
     inkscape:deskcolor="#d1d1d1"
     inkscape:zoom="0.1607631"
     inkscape:cx="-1670.1594"
     inkscape:cy="158.61849"
     inkscape:window-width="1920"
     inkscape:window-height="1001"
     inkscape:window-x="-9"
     inkscape:window-y="-9"
     inkscape:window-maximized="1"
     inkscape:current-layer="g18" />
  <defs
     id="defs1">
    <style
       id="style1">
      .cls-1 {
        fill: #b8c4ce;
      }

      .cls-2 {
        fill: #00d6d6;
      }
    </style>
  </defs>
  <title
     id="title1">未标题-1</title>
  <g
     id="g18">
    <path
       class="cls-1"
       d="M531.153,178.134c7.234,5.525,13.973,10.633,20.671,15.794q36.839,28.383,73.641,56.813,21.065,16.338,41.8,33.088c1.366,1.108,2.379,4.3,1.808,5.9-9.364,26.215-19.034,52.32-28.585,78.469C631.8,391.976,623.3,415.821,614.361,439.5c-.978,2.592-3.949,4.949-6.571,6.288a76.76,76.76,0,0,1-14.187,5.326,15.709,15.709,0,0,1-8.481.283c-8.435-2.675-16.775-5.727-24.934-9.153a14.194,14.194,0,0,1-6.551-5.821q-31.726-58.579-63.076-117.363c-3.249-6.064-6.61-12.082-9.516-18.309-.893-1.913-1.277-4.806-.49-6.653q23.621-55.462,47.636-110.759C528.878,181.763,529.9,180.327,531.153,178.134Z"
       transform="translate(0 0.001)"
       id="path1" />
    <path
       class="cls-2"
       d="M359.46,337.1c3,10.721,5.862,20.967,8.855,31.668L321.6,385.014l-.2,2.117c6.032,2.329,12,4.825,18.1,6.961q48.873,17.113,97.8,34.078,41.465,14.44,82.926,28.891c20.442,7.117,40.941,14.077,61.3,21.424a21.047,21.047,0,0,0,15.176.226q29.82-10.808,59.769-21.259,52.923-18.534,105.9-36.9c28.828-9.989,57.711-19.821,86.536-29.818,2.616-.907,4.99-2.515,7.476-3.8l.132-1.765-45.1-16.057c5-9.525,9.431-18.379,14.409-26.911.635-1.089,4.386-1.224,6.279-.581,22.433,7.621,44.782,15.489,67.165,23.255,4.437,1.54,8.919,2.95,13.392,4.383,8.189,2.622,13.621,8.793,13.768,15.685.2,9.456-3.334,14.559-12.786,17.872q-38.354,13.443-76.764,26.726-46.069,15.984-92.154,31.922-40.44,14.049-80.843,28.206c-21.812,7.644-43.627,15.285-65.375,23.11a27.047,27.047,0,0,1-19.065-.053q-63.4-22.5-126.911-44.711c-26.9-9.45-53.794-18.941-80.752-28.235-28.515-9.831-57.126-19.383-85.644-29.2-7.691-2.649-15.232-5.748-22.781-8.792-7.153-2.884-11.775-7.824-11.744-15.989.028-7.173,4.543-12.943,12.8-15.868,18.765-6.646,37.6-13.107,56.413-19.6C333.121,346.075,345.44,341.9,359.46,337.1Z"
       transform="translate(0 0.001)"
       id="path2" />
    <path
       class="cls-2"
       d="M926.428,450.518a16.532,16.532,0,0,1-11.123,15.8c-25.239,8.886-50.57,17.512-75.829,26.344-19.8,6.925-39.527,14.091-59.339,21-16.545,5.768-33.214,11.179-49.744,16.99-28.815,10.129-57.513,20.592-86.361,30.624-17.054,5.931-34.224,11.567-51.528,16.712-3.571,1.062-8.218.1-11.938-1.181-37.613-12.956-75.135-26.18-112.687-39.316Q404.147,515.2,340.4,492.947c-25.078-8.715-50.254-17.144-75.333-25.855-6.424-2.231-11.747-6.252-13.309-13.225-1.528-6.816,1.082-12.7,6.782-16.607,3.76-2.578,7.769-4.73,13.033-2.835,18.525,6.668,37.2,12.927,55.8,19.374,26.924,9.329,53.823,18.733,80.761,28.022,25.418,8.764,50.92,17.289,76.3,26.159,32.923,11.506,65.837,23.049,98.571,35.079,5.878,2.16,10.615.626,15.606-1.12q51.4-17.973,102.708-36.209c18.41-6.526,36.727-13.317,55.167-19.755Q796.9,471.862,837.446,458.1c22.883-7.8,45.76-15.631,68.765-23.064C916.327,431.764,926.413,439.849,926.428,450.518Z"
       transform="translate(0 0.001)"
       id="path3" />
    <path
       class="cls-2"
       d="M268.362,497.627c4.712,1.275,9.678,2.3,14.421,3.954,24.877,8.689,49.655,17.661,74.55,26.3,26.468,9.183,53.068,17.984,79.535,27.17,24.416,8.475,48.689,17.361,73.105,25.835,18.073,6.274,36.305,12.09,54.4,18.291,7.181,2.46,14.144,5.558,21.318,8.041a11.054,11.054,0,0,0,6.748.287c25.216-8.871,50.318-18.066,75.53-26.951,18.737-6.6,37.609-12.823,56.389-19.3,23.535-8.12,47.025-16.368,70.557-24.5q37.674-13.008,75.388-25.9c11.057-3.8,22.122-7.583,33.154-11.455,10.454-3.669,18.589-.073,22.313,9.981,2.99,8.074-1.65,17.341-11,20.732-18.183,6.589-36.484,12.851-54.755,19.2-22.2,7.712-44.433,15.342-66.634,23.056Q744.935,589.2,696.52,606.116c-19.975,6.987-39.889,14.145-59.872,21.107-14.172,4.937-28.274,10.18-42.707,14.208-4.607,1.285-10.471-.019-15.262-1.625-29.818-10-59.522-20.337-89.211-30.716-22.017-7.7-43.913-15.741-65.935-23.425-35.326-12.331-70.72-24.471-106.076-36.719-17.762-6.154-35.544-12.254-53.233-18.61-7.2-2.589-11.8-7.847-12.538-15.666-.572-6.042,4-12.836,10.07-15.448C263.7,498.389,265.907,498.2,268.362,497.627Z"
       transform="translate(0 0.001)"
       id="path4" />
    <path
       class="cls-1"
       d="M686.151,297.634l56.758,43.251,1.543-.92c-.883-3.136-2.238-6.223-2.57-9.416-1.8-17.293-14.951-25.486-27.14-34.554a218.435,218.435,0,0,1-17.851-14.177c-1.771-1.632-3-5.656-2.3-7.9,12.242-38.947,24.819-77.789,37.357-116.643a45.855,45.855,0,0,1,2.434-4.9c4.958,9.865,9.341,18.46,13.613,27.108q31.556,63.88,63.142,127.745c2.35,4.723,2.284,8.623-.117,13.3-10.1,19.654-19.679,39.573-29.946,59.135a18.564,18.564,0,0,1-9.147,8.239c-43.7,15.82-87.544,31.235-131.355,46.743-1.149.407-2.347.675-4.895,1.4C652.669,389.448,669.288,343.874,686.151,297.634Z"
       transform="translate(0 0.001)"
       id="path5" />
    <path
       class="cls-1"
       d="M718.97,135.334c-13.964,43.851-27.785,87.25-41.986,131.843-6.382-4.793-11.7-8.7-16.917-12.724q-30.98-23.917-61.9-47.906-28.131-21.813-56.235-43.672c-3.32-2.568-2.128-5.306-.869-8.251q12.6-29.457,25.146-58.937c4.517-10.611,8.993-21.24,13.779-32.55Z"
       transform="translate(0 0.001)"
       id="path6" />
    <path
       class="cls-1"
       d="M558.153,66.443q-47.171,109.591-94.531,219.622L369.4,255.95c6.276-10.117,12.1-19.633,18.048-29.074,22.409-35.59,44.775-71.209,67.424-106.646a25.565,25.565,0,0,1,9.493-8.372c28.823-14.937,57.81-29.557,86.758-44.251,1.854-.941,3.8-1.692,5.709-2.532Z"
       transform="translate(0 0.001)"
       id="path7" />
    <path
       class="cls-2"
       d="M736.232,783.482c8.87,7.048,10.333,18.629,9.848,29.3-.627,13.789,3.008,29.023-7.906,40.92-5.948,6.483-13.047,10.619-22.359,10.587-38.194-.131-76.388-.027-114.582-.027-1.792,0-3.584-.165-5.885-.279V712.817c2.823-.233,5.27-.608,7.717-.611q51.835-.056,103.67-.018c16.072.007,28.49,8.247,31.3,23.879C740.741,751.111,740.107,766.645,736.232,783.482Zm-112,53.137a10.714,10.714,0,0,0,2.5.76c28.2.073,56.4.155,84.6.1,4.114-.008,6.244-2.477,6.22-6.7-.041-7.1.02-14.192-.059-21.287-.085-7.655-1.367-8.973-8.907-8.992q-38.753-.1-77.5-.068a59.4,59.4,0,0,0-6.847.787Zm.16-65.45c.657.359.965.674,1.274.675,26.558.09,53.117.245,79.672-.011,1.531-.015,4.156-3.287,4.335-5.223.569-6.134.232-12.353.22-18.54-.015-7.328-.9-8.257-8.093-8.259q-35.479-.014-70.959.05c-2.088,0-4.176.36-6.449.57Z"
       transform="translate(0 0.001)"
       id="path8" />
    <path
       class="cls-1"
       d="M149.353,864.115c-9.777,0-19.557.105-29.329-.129-1.265-.03-2.753-1.606-3.691-2.814Q98.987,838.834,81.8,816.378c-2.936-3.831-6.284-5.863-11.519-5.671-11.63.427-23.288.1-34.934.121-1.94,0-3.879.233-6.48.4v52.527H.407C.248,861.861,0,860.284,0,858.707q.05-69.058.155-138.119c.013-8.313.145-8.4,8.7-8.4H114.766c19.976.006,33.731,10.768,34.518,31.027a355.168,355.168,0,0,1-.625,40.855c-1.131,14.735-14.266,26.082-29.019,26.624-1.728.063-3.448.344-5.757.585,11.538,18.238,26.981,32.776,36.913,51.091Zm-120.381-81.2a8.633,8.633,0,0,0,2.291.771c28.008.081,56.016.177,84.023.117,4.563-.01,6.148-3.115,6.129-7.366-.041-9.458.048-18.917.013-28.374-.029-7.6-1.03-8.6-8.466-8.608q-38.742-.022-77.484.02c-2.1,0-4.2.279-6.506.442Z"
       transform="translate(0 0.001)"
       id="path9" />
    <path
       class="cls-1"
       d="M529.168,431.534c-11.514-4.03-21.673-7.6-31.838-11.143-30.7-10.717-61.383-21.5-92.129-32.084-6.524-2.247-10.486-5.241-12.306-12.949-5.133-21.745-11.788-43.124-17.788-64.669-3.238-11.636-6.342-23.31-9.738-35.823,2.125.484,3.923.753,5.63,1.3q43.816,14.084,87.585,28.313a8.941,8.941,0,0,1,4.75,3.705Q495.305,367.2,527,426.369C527.664,427.6,528.1,428.958,529.168,431.534Z"
       transform="translate(0 0.001)"
       id="path10" />
    <path
       class="cls-2"
       d="M884.672,865.392c-3.9-.457-6.723-1.066-9.551-1.076-26.749-.1-53.5-.032-80.245-.134-14.612-.055-27.155-10.884-28.044-25.767-.91-15.227-.174-30.553-.114-45.836,0-.67.45-1.338,1.079-3.089h94.41c-.4-6.143-.093-11.906-1.5-17.21-.492-1.847-5.245-3.636-8.04-3.618-16.331.1-32.66,1.123-48.988,1.079-11.566-.032-23.129-1.257-35.219-1.981V742.553c2.555-.112,4.686-.286,6.817-.288,27.3-.02,54.594.291,81.881-.136,15.81-.248,30.859,10.958,31.43,27.326.516,14.807.654,29.627.928,44.441.259,13.987.31,27.98.8,41.958C890.5,861.134,889.235,864.728,884.672,865.392Zm-90.336-49.4c0,4.93.146,9.412-.037,13.88-.227,5.542,2.2,7.921,7.773,7.858,17.434-.2,34.87-.155,52.3-.3a40.513,40.513,0,0,0,6.029-.92V815.99Z"
       transform="translate(0 0.001)"
       id="path11" />
    <path
       class="cls-2"
       d="m 1080.991,817 c 0,5.436 -0.454,10.16 0.125,14.754 0.61,4.838 3.918,6.661 8.961,6.627 26.386,-0.18 52.774,-0.083 79.161,-0.083 h 7.089 c 2.972,8.717 2.475,17.006 0.468,25.51 -2.142,0.2 -3.568,0.439 -4.994,0.441 -29.116,0.025 -58.234,-0.082 -87.35,0.063 -17.8,0.089 -30.861,-14.038 -31.238,-31.7 -0.4,-18.917 -0.24,-37.851 -0.049,-56.775 0.2,-20.309 13.838,-33.564 34.149,-33.572 18.744,-0.008 37.488,-0.008 56.232,0 22.169,0.008 34.631,12.549 34.636,34.849 0,11.1 -0.154,22.2 0.065,33.3 0.1,4.949 -1.723,6.7 -6.713,6.666 -27.842,-0.168 -55.686,-0.079 -83.529,-0.079 z m 68.349,-26.331 c 0,-6.051 0.4,-11.333 -0.236,-16.488 -0.2,-1.606 -3.17,-4.077 -4.9,-4.1 -19.063,-0.293 -38.133,-0.249 -57.2,-0.053 -1.547,0.016 -4.322,1.735 -4.4,2.823 -0.44,5.836 -0.208,11.724 -0.208,17.822 z"
       transform="translate(0,0.001)"
       id="path12"
       sodipodi:nodetypes="cscsccccccccccccccccsccc" />
    <path
       class="cls-2"
       d="M829.874,294.5c-3.139-6.3-6.332-12.27-9-18.466-.477-1.108,1.049-3.25,1.934-4.747,7.452-12.6,16.4-24.539,22.134-37.869,8.657-20.137,13.466-41.646,11.494-63.818a249.151,249.151,0,0,0-6.329-37.061c-11.632-47.478-42.214-78.918-85.635-98.949-24.188-11.159-49.986-13.712-76.09-11.4-26.865,2.384-51.2,12.512-73.081,28.245-3.331,2.4-6.014,2.569-9.382.574-3.9-2.308-7.976-4.307-11.951-6.487a20.4,20.4,0,0,1-2.423-2.087c38.369-33.425,83.047-46.9,132.462-41.15,85.51,9.953,132.791,68.445,148.42,126.2C893.007,203.5,860.035,266.741,829.874,294.5Z"
       transform="translate(0 0.001)"
       id="path13" />
    <path
       class="cls-2"
       d="M1032.744,775.781c-1.908.147-3.516.368-5.124.378-6.9.039-13.8.017-20.618.017l-2.818-5.562a6.958,6.958,0,0,0-1.723-.592c-18.515-.525-37.028-1.116-55.546-1.477-7.657-.15-9.371,1.751-9.442,9.216-.014,1.457.076,2.918-.012,4.369-.321,5.244,1.8,7.523,7.347,7.456q27.849-.339,55.7-.022c10.153.119,19.867,2.7,25.9,11.443a46.92,46.92,0,0,1,6.876,17.184c1.152,5.779.094,11.97.3,17.97.577,16.567-16.338,28.368-28.221,28.167-22.2-.375-44.424-.481-66.622.022-15.83.359-32.177-15.25-28.342-33.447h26.01c1.275,6.872,6.158,7.607,12.216,7.494,16.2-.3,32.4-.078,48.6-.112,6.768-.014,8.6-1.94,8.642-8.827v-1.092c.019-11.369.019-11.369-11.432-11.37-17.112,0-34.224.038-51.336-.013-16.6-.05-29.22-8.411-32.188-24.44-2.791-15.068-4-30.969,9.706-42.907a28.318,28.318,0,0,1,18.8-7.319q32.766-.237,65.534-.017C1022.16,742.42,1035.917,758.808,1032.744,775.781Z"
       transform="translate(0 0.001)"
       id="path14" />
    <path
       class="cls-1"
       d="M232.861,864.217c-10.552-.006-21.1.067-31.657-.023a31.081,31.081,0,0,1-31.121-30.637c-.312-19.281-.73-38.592.008-57.847.754-19.658,10.925-33.2,34.07-33.412,19.1-.172,38.212.239,57.31-.11,20.3-.371,33.533,13.492,33.6,33.71.06,18.74.025,37.48.009,56.22-.013,15.675-9.507,28.382-24.622,31.556-5.94,1.247-12.313.477-18.49.536C245.6,864.271,239.229,864.223,232.861,864.217Zm34.615-60.5c0-8.906-.17-17.816.062-26.716.147-5.625-2.8-8.239-7.8-8.317q-26.981-.425-53.969-.278c-4.654.023-8.232,2.546-8.262,7.591q-.161,27.533.208,55.065c.061,4.622,2.7,7.266,7.683,7.25,18.175-.059,36.351.035,54.525-.062,4.949-.027,7.674-2.49,7.589-7.816-.144-8.907-.041-17.814-.036-26.72Z"
       transform="translate(0 0.001)"
       id="path15" />
    <path
       class="cls-1"
       d="M579.265,742.264c-1.488,3.115-2.044,5.294-3.345,6.848-14.8,17.669-29.708,35.242-44.954,53.274l49.8,59.69-1.216,2.186c-5.149,0-10.445-.781-15.42.149-13.958,2.61-22.089-4.71-29.666-14.948-7.1-9.6-15.556-18.2-23.186-27.421-4.047-4.894-8.778-7.164-15.179-6.428-3.7.426-7.49.077-12.023.077v48.087H456.938V703.087h26.844v86.247c7.688,0,14.519.121,21.338-.121,1.129-.04,2.365-1.526,3.277-2.582,11.63-13.458,23.067-27.087,34.944-40.323,1.978-2.2,5.758-3.682,8.806-3.868C560.62,741.925,569.147,742.264,579.265,742.264Z"
       transform="translate(0 0.001)"
       id="path16" />
    <path
       class="cls-1"
       d="M435.036,743.069v24.617c-2.054.178-4.132.511-6.21.515q-37.665.066-75.33.056c-8.431.01-11.03,2.635-11.039,11.106q-.024,24.018.024,48.036c.03,9.187,1.765,10.895,10.775,10.9q37.392.012,74.784.017c2.135,0,4.27.185,7.035.312v25.236c-1.627.116-3.365.349-5.1.35-27.476.018-54.959-.4-82.424.149-17.071.34-32.4-12.75-31.863-31.6.588-20.543.145-41.115.266-61.674.079-13.4,11.562-28.089,28.307-28.555,29.452-.818,58.945-.183,88.421-.134A12.254,12.254,0,0,1,435.036,743.069Z"
       transform="translate(0 0.001)"
       id="path17" />
    <path
       class="cls-2"
       d="M649.933,74.653c28.5-20.181,90.727-26.144,134.32,16.995,42.345,41.9,44.054,102.6,16.7,143.575-2.083-3.575-3.857-6.711-5.718-9.8-4.443-7.366-5.268-14.069-2.68-23.264,10.5-37.315,2.621-70.857-26.3-97.71C753.961,93.032,739.116,85.89,722.023,82.96c-15.918-2.728-31.183-2.467-46.434,2.694a5.972,5.972,0,0,1-4.071-.336C664.5,81.981,657.566,78.453,649.933,74.653Z"
       transform="translate(0 0.001)"
       id="path18" />
  </g>
  <g
     id="g22">
    <path
       d="m 1075.972,583.635 c 23.518,0 47.039,0.193 70.553,-0.078 12.76,-0.147 29.318,10.134 31.146,28.3 1.053,10.473 0.655,21.1 0.673,31.663 0.02,11.143 0.375,22.336 -0.529,33.418 -1.284,15.745 -15.339,28.106 -31.182,28.14 -41.214,0.089 -82.428,0.029 -123.641,0.029 -5.7,0 -11.41,0.024 -17.114,0 -18.018,-0.072 -32.352,-13.52 -32.742,-31.552 -0.42,-19.38667 -0.434,-38.78067 -0.042,-58.182 0.349,-18.073 14.811,-31.664 33.023,-31.706 23.285,-0.053 46.57,-0.013 69.855,-0.013 z m -0.539,111.169 v 0.033 h 10.129 c 20.023,0 40.046,-0.118 60.068,0.032 13.473,0.1 22.17,-11.137 22.237,-20.539 0.139,-19.625 0.286,-39.255 -0.047,-58.875 -0.281,-12.14475 -10.2311,-21.83029 -22.379,-21.784 -46.3333,-0.04 -92.6687,0.007 -139.006,0.141 -13.808,0.042 -23.335,9.794 -23.368,23.607 -0.043,18 0.2,36 0.012,54 -0.0704,13.03499 10.52109,23.61617 23.556,23.533 22.922,-0.525 45.865,-0.152 68.798,-0.152 z"
       transform="translate(0,0.001)"
       id="path19"
       sodipodi:nodetypes="csccccsccccccccscccccscccc"
       style="fill:#00d6d6;fill-opacity:1" />
    <path
       d="M1062.82,626.137a23.9,23.9,0,0,1,21.153,14.082c4.7,9.824,3.9,19.54-3.278,28-6.387,7.526-15.136,9.622-24.618,8.691-14.919-1.465-24.008-12.708-23.087-28.2C1033.754,635.867,1045.28,626.163,1062.82,626.137Zm-3.107,12.526a12.112,12.112,0,0,0-12.6,12.379c.017,7.755,5.27,13.542,12.355,13.614,7.38.074,12.675-5.362,12.73-13.071C1072.254,644.139,1067.008,638.711,1059.713,638.663Z"
       transform="translate(0 0.001)"
       id="path20"
       style="fill:#00d6d6;fill-opacity:1" />
    <path
       d="M1108.54,675.8V625.05h-20.063V612.405c1.217,0,2.442,0,3.668,0,16.185.032,32.37.133,48.554.027,2.7-.018,3.491.8,3.339,3.35-.172,2.866-.04,5.75-.04,9.026h-20.125V675.8Z"
       transform="translate(0 0.001)"
       id="path21"
       style="fill:#00d6d6;fill-opacity:1" />
    <path
       d="M1023.192,612.652v63.023h-14.417V612.652Z"
       transform="translate(0 0.001)"
       id="path22"
       style="fill:#00d6d6;fill-opacity:1" />
  </g>
  <metadata
     id="metadata22">
    <rdf:RDF>
      <cc:Work
         rdf:about="">
        <dc:title>未标题-1</dc:title>
      </cc:Work>
    </rdf:RDF>
  </metadata>
</svg>
